<svg width="363" height="568" viewBox="0 0 363 568" fill="none" xmlns="http://www.w3.org/2000/svg">
<path fill-rule="evenodd" clip-rule="evenodd" d="M245.423 349.329C313.671 323.677 362.223 257.898 362.223 180.798C362.223 81.3745 281.484 0.776001 181.889 0.776001C82.2929 0.776001 1.5546 81.3745 1.5546 180.798C1.5546 258.265 50.5708 324.304 119.332 349.693C86.3787 370.622 64.5161 407.401 64.5161 449.279C64.5161 492.614 87.9277 530.491 122.814 550.992V550.947C126.902 553.399 131.689 554.809 136.805 554.809C151.83 554.809 164.011 542.65 164.011 527.65C164.011 517.22 158.12 508.162 149.479 503.613C131.156 492.436 118.927 472.283 118.927 449.279C118.927 414.138 147.464 385.65 182.666 385.65C217.868 385.65 246.405 414.138 246.405 449.279C246.405 472.283 234.176 492.436 215.853 503.613C207.212 508.162 201.321 517.22 201.321 527.65C201.321 542.65 213.502 554.809 228.527 554.809C233.643 554.809 238.43 553.399 242.518 550.947V550.992C277.404 530.491 300.816 492.614 300.816 449.279C300.816 407.158 278.698 370.193 245.423 349.329ZM242.518 282.466C238.43 284.918 233.643 286.328 228.527 286.328C213.502 286.328 201.321 274.169 201.321 259.169C201.321 248.739 207.212 239.681 215.853 235.132C234.176 223.955 246.405 203.802 246.405 180.798C246.405 145.657 217.868 117.169 182.666 117.169C147.464 117.169 118.927 145.657 118.927 180.798C118.927 203.802 131.156 223.955 149.479 235.132C158.12 239.681 164.011 248.739 164.011 259.169C164.011 274.169 151.83 286.328 136.805 286.328C131.689 286.328 126.902 284.918 122.814 282.466V282.511C87.9277 262.01 64.5161 224.133 64.5161 180.798C64.5161 115.658 117.414 62.8525 182.666 62.8525C247.918 62.8525 300.816 115.658 300.816 180.798C300.816 224.133 277.404 262.01 242.518 282.511V282.466Z" fill="url(#paint0_linear)" fill-opacity="0.1"/>
<g opacity="0.6">
<path fill-rule="evenodd" clip-rule="evenodd" d="M62.9615 180.798C62.9615 115.23 116.207 62.0765 181.889 62.0765C247.57 62.0765 300.816 115.23 300.816 180.798C300.816 246.366 247.57 299.519 181.889 299.519C116.207 299.519 62.9615 246.366 62.9615 180.798ZM181.889 63.6284C117.066 63.6284 64.5161 116.087 64.5161 180.798C64.5161 220.249 84.0479 255.147 113.985 276.38C110.264 271.637 108.045 265.662 108.045 259.169C108.045 243.742 120.573 231.235 136.028 231.235C138.376 231.235 140.657 231.524 142.837 232.068C127.361 220.303 117.373 201.715 117.373 180.798C117.373 145.228 146.257 116.393 181.889 116.393C217.52 116.393 246.405 145.228 246.405 180.798C246.405 201.715 236.416 220.303 220.94 232.068C223.12 231.524 225.401 231.235 227.749 231.235C243.204 231.235 255.732 243.742 255.732 259.169C255.732 265.662 253.514 271.637 249.792 276.38C279.729 255.147 299.261 220.249 299.261 180.798C299.261 116.087 246.712 63.6284 181.889 63.6284ZM231.995 286.784C230.611 286.995 229.193 287.104 227.749 287.104C212.295 287.104 199.767 274.597 199.767 259.169C199.767 251.726 202.683 244.962 207.438 239.955C199.603 243.331 190.965 245.202 181.889 245.202C172.812 245.202 164.174 243.331 156.339 239.955C161.094 244.962 164.011 251.726 164.011 259.169C164.011 274.597 151.482 287.104 136.028 287.104C134.584 287.104 133.167 286.995 131.782 286.784C146.978 293.956 163.964 297.967 181.889 297.967C199.813 297.967 216.799 293.956 231.995 286.784ZM214.692 234.456C213.975 234.834 213.277 235.243 212.6 235.679C203.515 240.756 193.04 243.65 181.889 243.65C170.737 243.65 160.262 240.756 151.178 235.679C150.5 235.243 149.802 234.834 149.086 234.456C130.998 223.414 118.927 203.513 118.927 180.798C118.927 146.085 147.116 117.945 181.889 117.945C216.661 117.945 244.85 146.085 244.85 180.798C244.85 203.513 232.779 223.414 214.692 234.456ZM213.401 237.01C206.131 241.71 201.321 249.879 201.321 259.169C201.321 273.74 213.154 285.552 227.749 285.552C242.345 285.552 254.178 273.74 254.178 259.169C254.178 244.599 242.345 232.787 227.749 232.787C223.312 232.787 219.131 233.878 215.459 235.807C214.781 236.22 214.095 236.621 213.401 237.01ZM136.028 232.787C140.465 232.787 144.647 233.878 148.318 235.807C148.996 236.22 149.682 236.621 150.376 237.01C157.646 241.711 162.456 249.879 162.456 259.169C162.456 273.74 150.624 285.552 136.028 285.552C121.432 285.552 109.6 273.74 109.6 259.169C109.6 244.599 121.432 232.787 136.028 232.787Z" fill="url(#paint1_angular)"/>
<path fill-rule="evenodd" clip-rule="evenodd" d="M246.657 349.691C307.573 326.398 352.672 271.207 361.445 204.593V314.261C361.445 314.69 361.793 315.038 362.223 315.038C362.652 315.038 363 314.69 363 314.261V48.8866C363 48.4573 362.652 48.1093 362.223 48.1093C361.793 48.1093 361.445 48.4573 361.445 48.8866V157.002C350.802 76.1831 286.685 12.1773 205.725 1.55191H314.809C315.237 1.55191 315.585 1.20451 315.585 0.775956C315.585 0.347407 315.237 0 314.809 0H48.9687C48.5401 0 48.1927 0.347407 48.1927 0.775956C48.1927 1.20451 48.5401 1.55191 48.9687 1.55191H158.052C75.8648 12.3384 11.035 78.1366 1.8847 160.691L1.55686 48.1084C1.55561 47.6791 1.20659 47.3321 0.777306 47.3333C0.348013 47.3346 0.00101343 47.6836 0.00226354 48.1129L0.775039 313.487C0.776289 313.917 1.1253 314.264 1.55459 314.262C1.98388 314.261 2.33089 313.912 2.32964 313.483L2.00488 201.961C9.9221 269.75 55.4039 326.092 117.12 349.691C89.6391 367.539 70.0055 396.415 64.5161 430.033V378.668C64.5161 378.239 64.168 377.891 63.7388 377.891C63.3095 377.891 62.9615 378.239 62.9615 378.668V519.889C62.9615 520.319 63.3095 520.667 63.7388 520.667C64.168 520.667 64.5161 520.319 64.5161 519.889V468.524C72.7052 518.676 112.371 558.273 162.61 566.448H111.153C110.724 566.448 110.377 566.795 110.377 567.224C110.377 567.653 110.724 568 111.153 568H252.624C253.053 568 253.4 567.653 253.4 567.224C253.4 566.795 253.053 566.448 252.624 566.448H201.167C251.406 558.273 291.072 518.676 299.261 468.524V519.889C299.261 520.319 299.609 520.667 300.039 520.667C300.468 520.667 300.816 520.319 300.816 519.889V378.668C300.816 378.239 300.468 377.891 300.039 377.891C299.609 377.891 299.261 378.239 299.261 378.668V430.033C293.772 396.415 274.138 367.539 246.657 349.691ZM181.889 1.55191C82.7222 1.55191 2.3319 81.803 2.3319 180.798C2.3319 257.612 50.7342 323.142 118.753 348.65C137.049 337.186 158.694 330.557 181.889 330.557C205.084 330.557 226.728 337.186 245.024 348.65C313.024 323.149 361.418 257.65 361.445 180.864V180.732C361.41 81.7676 281.033 1.55191 181.889 1.55191ZM299.261 449.279C299.261 407.693 277.56 371.168 244.845 350.373C225.237 357.631 204.026 361.596 181.889 361.596C159.751 361.596 138.541 357.631 118.932 350.373C86.2176 371.168 64.5161 407.693 64.5161 449.279C64.5161 488.73 84.0479 523.628 113.985 544.861C110.264 540.117 108.045 534.143 108.045 527.65C108.045 512.222 120.573 499.716 136.028 499.716C138.376 499.716 140.657 500.005 142.837 500.549C127.361 488.784 117.373 470.196 117.373 449.279C117.373 413.709 146.257 384.874 181.889 384.874C217.52 384.874 246.405 413.709 246.405 449.279C246.405 470.196 236.416 488.784 220.94 500.549C223.12 500.005 225.401 499.716 227.749 499.716C243.204 499.716 255.732 512.222 255.732 527.65C255.732 534.142 253.514 540.117 249.792 544.861C279.729 523.628 299.261 488.73 299.261 449.279ZM181.889 566.448C199.813 566.448 216.799 562.437 231.995 555.265C230.611 555.476 229.193 555.585 227.749 555.585C212.295 555.585 199.767 543.078 199.767 527.65C199.767 520.206 202.683 513.443 207.438 508.435C199.603 511.812 190.965 513.683 181.889 513.683C172.812 513.683 164.174 511.812 156.339 508.435C161.094 513.443 164.011 520.206 164.011 527.65C164.011 543.078 151.482 555.585 136.028 555.585C134.584 555.585 133.167 555.476 131.782 555.265C146.978 562.437 163.964 566.448 181.889 566.448ZM243.175 349.331C225.337 338.407 204.35 332.109 181.889 332.109C159.428 332.109 138.44 338.407 120.602 349.331C139.726 356.263 160.365 360.044 181.889 360.044C203.412 360.044 224.051 356.263 243.175 349.331ZM212.6 504.16C213.277 503.723 213.975 503.315 214.692 502.937C232.779 491.895 244.85 471.994 244.85 449.279C244.85 414.566 216.661 386.426 181.889 386.426C147.116 386.426 118.927 414.566 118.927 449.279C118.927 471.994 130.998 491.895 149.086 502.937C149.802 503.315 150.5 503.723 151.178 504.16C160.262 509.237 170.737 512.131 181.889 512.131C193.04 512.131 203.515 509.237 212.6 504.16ZM201.321 527.65C201.321 518.36 206.131 510.191 213.401 505.491C214.095 505.102 214.781 504.701 215.459 504.288C219.131 502.359 223.312 501.268 227.749 501.268C242.345 501.268 254.178 513.08 254.178 527.65C254.178 542.221 242.345 554.033 227.749 554.033C213.154 554.033 201.321 542.221 201.321 527.65ZM148.318 504.288C144.646 502.359 140.465 501.268 136.028 501.268C121.432 501.268 109.6 513.08 109.6 527.65C109.6 542.221 121.432 554.033 136.028 554.033C150.624 554.033 162.456 542.221 162.456 527.65C162.456 518.36 157.646 510.191 150.376 505.491C149.682 505.102 148.996 504.701 148.318 504.288Z" fill="url(#paint2_angular)"/>
</g>
<defs>
<linearGradient id="paint0_linear" x1="181.889" y1="0.776001" x2="181.889" y2="554.809" gradientUnits="userSpaceOnUse">
<stop stop-color="#999999"/>
<stop offset="1" stop-color="#C4C4C4"/>
</linearGradient>
<radialGradient id="paint1_angular" cx="0" cy="0" r="1" gradientUnits="userSpaceOnUse" gradientTransform="translate(181.5 284) rotate(90) scale(284 181.5)">
<stop offset="0.0939227" stop-color="#7E8DC7"/>
<stop offset="0.309392" stop-color="#0F98D0"/>
<stop offset="0.508287" stop-color="#9ACD32"/>
<stop offset="0.712707" stop-color="#FFB900"/>
<stop offset="0.917127" stop-color="#E66078"/>
</radialGradient>
<radialGradient id="paint2_angular" cx="0" cy="0" r="1" gradientUnits="userSpaceOnUse" gradientTransform="translate(181.5 284) rotate(90) scale(284 181.5)">
<stop offset="0.0939227" stop-color="#7E8DC7"/>
<stop offset="0.309392" stop-color="#0F98D0"/>
<stop offset="0.508287" stop-color="#9ACD32"/>
<stop offset="0.712707" stop-color="#FFB900"/>
<stop offset="0.917127" stop-color="#E66078"/>
</radialGradient>
</defs>
</svg>
