<svg width="700" height="704" viewBox="0 0 700 704" fill="none" xmlns="http://www.w3.org/2000/svg">
<path opacity="0.1" fill-rule="evenodd" clip-rule="evenodd" d="M373.305 81.0281C305.979 1.55843 173.222 29.4324 144.068 129.392L31.6749 519.93C4.42038 613.375 87.9828 700.914 184.808 680.35L561.751 600.295C658.576 579.731 699.279 465.801 636.342 391.511L373.305 81.0281ZM388.502 236.585C360.527 185.884 284.418 185.884 256.443 236.585L147.147 433.152C120.995 480.548 157.027 537.477 213.176 537.477H431.768C487.918 537.477 522.436 480.548 496.285 433.152L388.502 236.585Z" fill="url(#paint0_linear)"/>
<path opacity="0.6" fill-rule="evenodd" clip-rule="evenodd" d="M699.426 466.072C699.107 466.345 698.627 466.306 698.356 465.986L645.324 403.381C658.251 423.524 665.751 447.505 665.751 473.245C665.751 529.141 630.382 576.747 580.879 594.748L679.214 573.969C679.625 573.882 680.028 574.145 680.114 574.555C680.2 574.965 679.938 575.368 679.528 575.454L71.9508 703.843C71.5402 703.93 71.137 703.667 71.0508 703.256C70.9648 702.846 71.2271 702.444 71.6369 702.357L164.198 682.798C161.127 683.018 158.027 683.13 154.901 683.13C83.8056 683.13 26.1717 625.287 26.1717 553.935C26.1717 547.423 26.6519 541.023 27.5786 534.769L1.6638 624.381C1.54753 624.783 1.12698 625.014 0.725152 624.897C0.324432 624.78 0.0938816 624.361 0.209831 623.96L172.671 27.599C172.787 27.1969 173.208 26.9656 173.61 27.0827C174.01 27.1994 174.241 27.6185 174.125 28.0195L148.807 115.567C169.794 68.0432 217.208 34.8912 272.338 34.8912C307.012 34.8912 338.635 48.0061 362.549 69.5631L304.944 1.55974C304.674 1.24124 304.713 0.76452 305.03 0.493582C305.35 0.22127 305.829 0.260126 306.1 0.580243L699.512 465.006C699.782 465.325 699.743 465.801 699.426 466.072ZM537.022 602.44C540.012 602.44 542.977 602.337 545.916 602.136L198.379 675.575C248.08 657.679 283.63 609.974 283.63 553.935C283.63 548.357 283.277 542.861 282.594 537.469H425.3C447.504 576.291 489.221 602.44 537.022 602.44ZM422.826 535.95C390.382 529.826 365.835 501.239 365.835 466.899C365.835 428.941 395.826 398.012 433.324 396.68C441.066 386.137 450.365 376.817 460.882 369.062L396.945 251.685C399.617 259.62 401.066 268.12 401.066 276.96C401.066 320.523 365.879 355.837 322.474 355.837C288.489 355.837 259.543 334.188 248.578 303.882C239.762 302.312 231.241 299.883 223.105 296.685L153.58 421.725C166.423 406.385 185.679 396.635 207.205 396.635C245.871 396.635 277.216 428.093 277.216 466.899C277.216 477.669 274.801 487.874 270.486 496.997C276.389 509.043 280.477 522.148 282.392 535.95L422.826 535.95ZM448.865 535.95C481.31 529.826 505.856 501.239 505.856 466.899C505.856 459.488 504.713 452.345 502.594 445.638L526.816 490.105C527.016 490.473 527.477 490.608 527.845 490.407C528.211 490.206 528.345 489.747 528.146 489.381L462.848 369.506C483.729 354.441 509.343 345.569 537.022 345.569C607.281 345.569 664.238 402.732 664.238 473.245C664.238 543.759 607.281 600.921 537.022 600.921C490.093 600.921 449.099 575.418 427.048 537.469H505.007C505.426 537.469 505.766 537.129 505.766 536.709C505.766 536.29 505.426 535.95 505.007 535.95H448.865ZM280.864 535.95C279.015 522.79 275.168 510.275 269.639 498.724C259.96 517.812 241.846 531.869 220.225 535.95H280.864ZM194.186 535.95C161.741 529.826 137.195 501.239 137.195 466.899C137.195 459.214 138.424 451.818 140.696 444.897L115.555 490.112C115.351 490.479 114.889 490.61 114.523 490.405C114.159 490.201 114.029 489.741 114.232 489.376L149.257 426.383C81.6166 429.346 27.6848 485.32 27.6848 553.935C27.6848 624.449 84.6413 681.611 154.901 681.611C225.16 681.611 282.116 624.449 282.116 553.935C282.116 548.355 281.76 542.859 281.068 537.469H137.954C137.535 537.469 137.195 537.129 137.195 536.709C137.195 536.29 137.535 535.95 137.954 535.95H194.186ZM389.484 234.822L347.294 157.37C347.094 157.002 346.633 156.867 346.265 157.069C345.899 157.27 345.765 157.728 345.965 158.095L383.925 227.783C369.524 209.681 347.348 198.084 322.474 198.084C298.298 198.084 276.672 209.039 262.255 226.272L299.705 158.919C299.908 158.554 299.778 158.094 299.413 157.89C299.048 157.685 298.585 157.817 298.382 158.183L222.43 294.781C173.401 274.942 138.798 226.743 138.798 170.432C138.798 96.4136 198.586 36.4098 272.338 36.4098C346.089 36.4098 405.877 96.4136 405.877 170.432C405.877 193.769 399.934 215.713 389.484 234.822ZM390.343 236.4L462.117 368.163C483.218 352.985 509.08 344.051 537.022 344.051C570.178 344.051 600.406 356.631 623.226 377.295L386.125 97.3942C399.585 118.473 407.39 143.538 407.39 170.432C407.39 194.379 401.202 216.876 390.343 236.4ZM461.614 370.407C451.602 377.814 442.71 386.659 435.241 396.638C435.443 396.636 435.644 396.635 435.846 396.635C457.529 396.635 476.91 406.528 489.752 422.062L461.614 370.407ZM150.122 424.828L221.687 296.118C172.196 276.01 137.285 227.313 137.285 170.432C137.285 163.586 137.791 156.859 138.767 150.286L37.169 501.606C56.5708 457.704 99.6364 426.677 150.122 424.828ZM223.849 295.346C231.577 298.369 239.654 300.692 248.003 302.234C245.33 294.3 243.882 285.8 243.882 276.96C243.882 268.323 245.265 260.01 247.821 252.232L223.849 295.346ZM388.373 236.812C365.374 277.219 322.025 304.454 272.338 304.454C264.624 304.454 257.063 303.798 249.708 302.538C246.914 294.531 245.395 285.924 245.395 276.96C245.395 234.237 279.904 199.602 322.474 199.602C350.396 199.602 374.85 214.502 388.373 236.812ZM389.259 238.312C365.892 278.765 322.281 305.973 272.338 305.973C264.833 305.973 257.472 305.359 250.301 304.177C261.274 333.473 289.448 354.318 322.474 354.318C365.044 354.318 399.553 319.684 399.553 276.96C399.553 262.883 395.806 249.683 389.259 238.312ZM367.348 466.899C367.348 500.702 391.658 528.806 423.688 534.565C413.868 516.321 408.293 495.436 408.293 473.245C408.293 445.283 417.145 419.395 432.189 398.25C396.059 400.157 367.348 430.163 367.348 466.899ZM409.806 473.245C409.806 495.596 415.529 516.605 425.583 534.878C428.931 535.382 432.358 535.644 435.846 535.644C473.676 535.644 504.343 504.866 504.343 466.899C504.343 428.932 473.676 398.154 435.846 398.154C435.265 398.154 434.686 398.161 434.108 398.176C418.824 419.245 409.806 445.188 409.806 473.245ZM268.801 497.006C257.679 519.883 234.276 535.644 207.205 535.644C169.375 535.644 138.708 504.866 138.708 466.899C138.708 451.71 143.616 437.671 151.928 426.293C152.916 426.271 153.907 426.259 154.901 426.259C204.777 426.259 247.95 455.066 268.801 497.006ZM153.086 424.753C165.618 408.568 185.2 398.154 207.205 398.154C245.035 398.154 275.703 428.932 275.703 466.899C275.703 477.012 273.527 486.615 269.619 495.262C248.322 453.402 204.946 424.741 154.901 424.741C154.295 424.741 153.69 424.745 153.086 424.753Z" fill="url(#paint1_linear)"/>
<defs>
<linearGradient id="paint0_linear" x1="486.657" y1="235.978" x2="-2.99375" y2="699.037" gradientUnits="userSpaceOnUse">
<stop stop-color="white"/>
<stop offset="1" stop-color="white" stop-opacity="0.2"/>
</linearGradient>
<linearGradient id="paint1_linear" x1="24.5787" y1="667.62" x2="507.344" y2="237.99" gradientUnits="userSpaceOnUse">
<stop stop-color="white" stop-opacity="0.4"/>
<stop offset="1" stop-color="white"/>
</linearGradient>
</defs>
</svg>
